<svg xmlns="http://www.w3.org/2000/svg" width="584.967" height="581.201" viewBox="0 0 584.967 581.201">
  <g id="circle" transform="translate(3 0.398)" fill="none">
    <path d="M291.5,0C455-9,595,136,581,291S452,593,291.5,580C225,573,170.508,543.357,121,505,52.622,452.024-3,384.054-3,291-3,130.837,128,9,291.5,0Z" stroke="none"/>
    <path d="M 305.9688415527344 1.60186767578125 C 301.2046813964844 1.60186767578125 296.3736267089844 1.7347412109375 291.6099243164063 1.99700927734375 C 271.5702209472656 3.10009765625 251.6355285644531 5.949462890625 232.359619140625 10.46600341796875 C 213.4401550292969 14.89898681640625 194.9150695800781 20.9932861328125 177.2988586425781 28.5797119140625 C 159.8795471191406 36.08123779296875 143.1496276855469 45.126953125 127.5737609863281 55.46533203125 C 112.0454711914063 65.77215576171875 97.4962158203125 77.4752197265625 84.33023071289063 90.24945068359375 C 71.09344482421875 103.0922241210938 59.109619140625 117.1591491699219 48.71136474609375 132.0594482421875 C 38.1728515625 147.1609191894531 29.1378173828125 163.29931640625 21.85723876953125 180.0264587402344 C 14.42498779296875 197.1022338867188 8.72174072265625 215.0226135253906 4.906005859375 233.2900085449219 C 0.987060546875 252.0512390136719 -1 271.4676208496094 -1 291 C -1 302.2879943847656 -0.15863037109375 313.5382995605469 1.50079345703125 324.438232421875 C 3.103759765625 334.9677124023438 5.5157470703125 345.4700012207031 8.66973876953125 355.6533203125 C 11.71002197265625 365.4690551757813 15.52667236328125 375.26953125 20.01385498046875 384.7823791503906 C 24.32708740234375 393.9264526367188 29.38427734375 403.0685424804688 35.04498291015625 411.9547729492188 C 40.466796875 420.4657592773438 46.60028076171875 428.9900817871094 53.27520751953125 437.291015625 C 59.63885498046875 445.2046203613281 66.68328857421875 453.1497802734375 74.2130126953125 460.90576171875 C 81.34844970703125 468.2556762695313 89.13714599609375 475.6593933105469 97.362548828125 482.9111633300781 C 105.0956115722656 489.7289123535156 113.4605407714844 496.6286926269531 122.2249145507813 503.4190063476563 C 149.4263000488281 524.4935302734375 175.102783203125 540.5301513671875 200.7215270996094 552.4453735351563 C 207.7957763671875 555.735595703125 214.9844665527344 558.76025390625 222.0878601074219 561.435302734375 C 229.4280090332031 564.1995239257813 236.9070739746094 566.6771240234375 244.3173828125 568.7993774414063 C 251.9532165527344 570.9861450195313 259.7515258789063 572.8630981445313 267.49560546875 574.3779907226563 C 275.4493103027344 575.9339599609375 283.5877380371094 577.1553344726563 291.6855163574219 578.0084838867188 C 298.1999816894531 578.5355224609375 304.7705688476563 578.8026733398438 311.2153930664063 578.8026733398438 C 347.1219177246094 578.8026733398438 381.680908203125 570.6677856445313 413.9324645996094 554.6239013671875 C 429.16552734375 547.0460205078125 443.9179077148438 537.6553955078125 457.7796936035156 526.7129516601563 C 471.2682495117188 516.0650024414063 484.0840759277344 503.8148498535156 495.8713989257813 490.3027648925781 C 507.4212341308594 477.0628356933594 518.1043701171875 462.4743957519531 527.6241455078125 446.942626953125 C 537.0303344726563 431.5960693359375 545.383544921875 415.19482421875 552.45166015625 398.1945190429688 C 559.5009155273438 381.2396240234375 565.3282470703125 363.5540161132813 569.7716674804688 345.62890625 C 574.245849609375 327.5799255371094 577.3534545898438 309.1395263671875 579.008056640625 290.820068359375 C 580.629150390625 272.8731689453125 580.1859130859375 254.6233215332031 577.69091796875 236.5775451660156 C 575.2697143554688 219.0653991699219 570.8953247070313 201.5787658691406 564.6893310546875 184.6033020019531 C 558.61474609375 167.9872436523438 550.7464599609375 151.7498474121094 541.3031616210938 136.3422241210938 C 531.9634399414063 121.103759765625 521.0408935546875 106.6062316894531 508.8387756347656 93.2523193359375 C 496.1683959960938 79.38592529296875 482.0809936523438 66.709228515625 466.9679260253906 55.57427978515625 C 451.6641540527344 44.29901123046875 435.2620849609375 34.57171630859375 418.2171630859375 26.66278076171875 C 400.7671508789063 18.56585693359375 382.5469360351563 12.33233642578125 364.0623779296875 8.13531494140625 C 344.968994140625 3.79998779296875 325.4235534667969 1.60186767578125 305.9688415527344 1.60186767578125 M 305.9688415527344 -0.39813232421875 C 463.1678466796875 -0.39813232421875 594.5855712890625 140.5883178710938 581 291 C 567.5802001953125 439.5763549804688 461.3573913574219 580.8026733398438 311.2153625488281 580.8026733398438 C 304.7239990234375 580.8026733398438 298.1515808105469 580.5387573242188 291.5 580 C 225 573 170.5082397460938 543.35693359375 121 505 C 52.6219482421875 452.0236206054688 -3 384.054443359375 -3 291 C -3 130.8374633789063 128 9 291.5 0 C 296.3399353027344 -0.26641845703125 301.1734924316406 -0.39813232421875 305.9688415527344 -0.39813232421875 Z" stroke="none" fill="#f3d4bc"/>
  </g>
</svg>
