<?xml version="1.0" encoding="utf-8"?>
<!-- Generator: Adobe Illustrator 22.1.0, SVG Export Plug-In . SVG Version: 6.00 Build 0)  -->
<svg version="1.1" id="Layer_1" xmlns="http://www.w3.org/2000/svg" xmlns:xlink="http://www.w3.org/1999/xlink" x="0px" y="0px"
	 viewBox="0 0 138 82" style="enable-background:new 0 0 138 82;" xml:space="preserve">
<g>
	<path d="M54.8,72.3c-9.1,0-23.2-7.3-31.1-23.8C13.4,60.7,11,63.6,9.5,63.9c-1.3,0-1.7-0.7-1.8-2c0-7.9,18.5-43.9,20.1-44.4
		c0.2,0,0.4,0,0.7,0.2c0.2,0,0.2,0.2,0.2,0.6v0.3c0,1.7-0.9,4.8-1.7,4.9c-0.7,0.1-3.6,5-8,13.7c-3.8,7.5-9.3,20-9.3,23.6v0.7
		C11,61,22.8,46.9,22.8,46.9c-0.4-1.3-0.3-0.6-0.5-1.9c0-0.4,0.2-0.7,0.5-0.7c0.4,0,0.8,0.2,1.7,0.8c9.2-10.5,10.1-11,10.1-11.4
		c-0.1-0.3-0.4-0.3-0.4-0.8c0-0.8,2.6-1.6,6.3-5.1C51.1,16.8,61,8.6,64.3,8.3c0.6,0,0.9,0.3,0.9,0.8c0,3-11.1,13.3-23.3,20.5
		c-1.9,1.2-2.8,1-16.8,17.3c1.9,5,12.3,22.7,30,23.6c1.9,0,1.8,0.7,1.9,1c0,0.2-0.4,0.8-0.7,0.8L54.8,72.3z M62.4,10.9h-0.1
		c-1.9,0.4-17.5,14.4-17.5,14.7C45.8,25.6,62.4,12.7,62.4,10.9z"/>
	<path d="M36.7,52.1c0-1.9,2.3-4.7,2.7-4.7c0.7,0,1.1,0.2,1.1,0.7c0,0.2-0.3,1-0.7,1c-0.1,0-1.2,1.4-1.2,2.4c0,0.4,0.2,0.7,0.9,0.7
		c2,0,4.7-2.2,7.1-4.2l0.4-0.1c0.4,0,0.8,0.4,0.8,0.9c0,0.5-0.6,1.2-0.6,1.8c0,0.5,0.3,0.9,1.3,0.9c4.1,0,8.4-3.3,8.9-3.3
		s0.6,0.4,0.6,0.7c0,0.3-5.5,4.3-9.6,4.3c-2.3,0-2.7-1.1-2.7-1.8l0.1-0.7c-1.4,1.6-4.7,3.3-6.4,3.4C37.6,53.9,36.7,53.1,36.7,52.1z"
		/>
	<path d="M54.6,52.9c0-1.2,2.4-5.1,3.3-5.1c0.2,0,0.7,0.1,0.7,0.7s-1.8,2.3-1.8,3c0,0.1,0.1,0.3,0.4,0.3c0.4,0,5.7-4.1,7.7-4.1
		c0.7,0,1,0.3,1,0.8c0,1-0.6,2.7-0.6,3.3c0,0.1,0.1,0.4,0.4,0.4c2.3,0,9-3.4,9.8-4.1c0,0,0.6,0.5,0.6,0.8c-2.2,2.3-9.2,4.9-10.9,4.9
		c-1.3,0-1.7-0.9-1.7-1.5c0-1.1,0.5-2.3,0.5-2.7l-0.1-0.1c-1.5,0-7,4.7-8,4.7C55.2,54.1,54.6,53.7,54.6,52.9z"/>
	<path d="M98.2,26.6c0.4,0,0.8,0.3,0.8,0.9c0,3.7-14.8,19.9-14.8,19.9c0,0-0.4,1-0.4,2c0,1.2,0.6,2.5,2.5,2.5c2.7,0,7.6-3.8,7.8-3.8
		s0.3,0.1,0.3,0.6c0,0.6-0.2,0.8-0.3,0.9c-0.9,0.6-4.8,4-8.1,4c-3.9,0-4.2-2.5-4.2-3.8l0-0.7c0,0-5,5.9-8.5,5.9
		c-1,0-1.7-0.7-1.7-1.6c0-3.7,5.9-7.5,7.1-7.5c0.6,0,0.7,0.7,0.7,0.9c0,0.6-0.3,1.3-1.2,1.6c-1.6,0.4-4.5,3.1-4.5,4.2
		c0,0.1,0.1,0.2,0.3,0.2c2.3,0,8.5-6.8,8.5-6.8C85.6,38.3,95.9,26.6,98.2,26.6z M91.9,35.7c2.7-3.4,4.5-6.2,4.5-6.3
		c-0.1,0-2.5,2.4-5.2,5.9s-6.1,8.6-6.1,8.8C85.3,44.1,89.2,39.2,91.9,35.7z"/>
	<path d="M90.4,52.2c0-2.9,6.3-6.2,9.4-6.2c1.2,0,1.5,0.6,1.5,1.1c0,0.4-0.3,0.8-0.4,0.8l-0.1,1.4c0,1,0.3,2.2,1.7,2.2
		c3,0,9.6-3.5,9.6-3.5c0.2,0,0.9,0.7,0.9,1c0,0.4-7.5,4.2-10.6,4.2c-2.9,0-3.1-2.6-3.1-3.2v-0.1c-1.7,1.3-4.2,4.4-7.1,4.4
		C91,54.3,90.4,53.2,90.4,52.2z M99,48.1L99,48.1c-2.1,0-6.9,2-6.9,4.2c0,0.2,0.3,0.4,0.6,0.4C94.3,52.6,98,49,99,48.1z"/>
	<path d="M109.2,52.9c0-1.2,2.4-5.1,3.3-5.1c0.2,0,0.7,0.1,0.7,0.7s-1.8,2.3-1.8,3c0,0.1,0.1,0.3,0.4,0.3c0.4,0,5.7-4.1,7.7-4.1
		c0.7,0,1,0.3,1,0.8c0,1-0.6,2.7-0.6,3.3c0,0.1,0.1,0.4,0.4,0.4c2.3,0,9-3.4,9.8-4.1c0,0,0.6,0.5,0.6,0.8c-2.2,2.3-9.2,4.9-10.9,4.9
		c-1.3,0-1.7-0.9-1.7-1.5c0-1.1,0.5-2.3,0.5-2.7l-0.1-0.1c-1.5,0-7,4.7-8,4.7C109.8,54.1,109.2,53.7,109.2,52.9z"/>
</g>
</svg>
